# xmcd
#
# Track frame offsets: 
#        150
#        13800
#        36600
#        51750
#        77475
#        103050
#        117825
#        136725
#        157575
#        171600
#        202200
#        233850
#        247725
#        265350
#
# Disc length: 3675 seconds
#
# Revision: 0
# Processed by: cddbd v1.5.2PL0 Copyright (c) Steve Scherf et al.
# Submitted via: ExactAudioCopy v0.99pb5
#
DISCID=bc0e590e
DTITLE=Angel Tavira - Y sus Hijos
DYEAR=1900
DGENRE=A Cappella
TTITLE0=No sean tan bobos
TTITLE1=Zitacuaro
TTITLE2=Julia
TTITLE3=El gusto federal
TTITLE4=Tierra caliente
TTITLE5=Corrido a Guerrero
TTITLE6=Belen (Brugada)
TTITLE7=Cuanto sufro en el mundo
TTITLE8=Viva Zirandaro
TTITLE9=Esos amores
TTITLE10=Tlapehuala
TTITLE11=Vacilon de Tacambaro
TTITLE12=Munecasin alma
TTITLE13=Guadalupe Navarro
EXTD=
EXTT0=
EXTT1=
EXTT2=
EXTT3=
EXTT4=
EXTT5=
EXTT6=
EXTT7=
EXTT8=
EXTT9=
EXTT10=
EXTT11=
EXTT12=
EXTT13=
PLAYORDER=
